<svg xmlns="http://www.w3.org/2000/svg" width="34" height="34" viewBox="0 0 34 34"><defs><filter id="a" width="34" height="34" x="0" y="0" filterUnits="userSpaceOnUse"><feOffset dy="1"/><feGaussianBlur result="blur" stdDeviation="3"/><feFlood flood-opacity=".302"/><feComposite in2="blur" operator="in"/><feComposite in="SourceGraphic"/></filter></defs><g filter="url(#a)"><path fill="#fff" d="M14.5 24a2 2 0 01-2-2h7a3.5 3.5 0 003.5-3.5v-7a2 2 0 012 2V22a2 2 0 01-2 2zM11 20.5a2 2 0 01-2-2V10a2 2 0 012-2h8.5a2 2 0 012 2v8.5a2 2 0 01-2 2z"/></g></svg>